<?xml version="1.0" encoding="UTF-8" standalone="no"?>
<!-- Created with Inkscape (http://www.inkscape.org/) -->

<svg
   xmlns:dc="http://purl.org/dc/elements/1.1/"
   xmlns:cc="http://creativecommons.org/ns#"
   xmlns:rdf="http://www.w3.org/1999/02/22-rdf-syntax-ns#"
   xmlns:svg="http://www.w3.org/2000/svg"
   xmlns="http://www.w3.org/2000/svg"
   xmlns:sodipodi="http://sodipodi.sourceforge.net/DTD/sodipodi-0.dtd"
   xmlns:inkscape="http://www.inkscape.org/namespaces/inkscape"
   version="1.1"
   sodipodi:docname="logo.svg"
   inkscape:version="0.48.2 r9819"
   sodipodi:version="0.32"
   id="svg1901"
   height="111.9685"
   width="111.9685"
   inkscape:export-filename="/home/zipola/Arkisto/Kuvat/codegrove_2012_logo/koodilehto_logo.png"
   inkscape:export-xdpi="600"
   inkscape:export-ydpi="600">
  <sodipodi:namedview
     id="base"
     pagecolor="#ffffff"
     bordercolor="#666666"
     borderopacity="1.0"
     inkscape:pageopacity="0.0"
     inkscape:pageshadow="2"
     inkscape:zoom="3.0886424"
     inkscape:cx="42.348199"
     inkscape:cy="46.703498"
     inkscape:document-units="px"
     inkscape:current-layer="svg1901"
     inkscape:window-width="1440"
     inkscape:window-height="852"
     inkscape:window-x="0"
     inkscape:window-y="0"
     showgrid="false"
     showguides="true"
     inkscape:guide-bbox="true"
     inkscape:window-maximized="1"
     fit-margin-top="0"
     fit-margin-left="0"
     fit-margin-right="0"
     fit-margin-bottom="0"
     units="cm" />
  <defs
     id="defs1903" />
  <metadata
     id="metadata1906">
    <rdf:RDF>
      <cc:Work
         rdf:about="">
        <dc:format>image/svg+xml</dc:format>
        <dc:type
           rdf:resource="http://purl.org/dc/dcmitype/StillImage" />
        <dc:title />
      </cc:Work>
    </rdf:RDF>
  </metadata>
  <g
     id="layer1"
     inkscape:groupmode="layer"
     inkscape:label="Taso 1"
     transform="translate(-30.984458,-11.916828)" />
  <rect
     style="fill:none;stroke:#000000;stroke-width:5;stroke-miterlimit:4;stroke-opacity:1;stroke-dasharray:none"
     id="rect41144-2-5"
     width="93.137634"
     height="93.137634"
     x="9.6320915"
     y="2.5453825"
     ry="3.8919413"
     rx="3.6630037" />
  <path
     inkscape:connector-curvature="0"
     style="fill:#000000;fill-opacity:1;stroke:none"
     d="m 54.075913,6.8331718 c -3.43191,2.28938 -7.83554,2.43758 -11.5625,4.1875002 -3.08066,0.30063 -10.0305,-1.5928802 -7.875,4.09375 -0.62921,3.32017 -5.38863,3.58038 -6.375,7 -3.55694,2.31709 -9.6134,3.12437 -8.90625,8.71875 -0.87243,2.27101 1.71458,5.08593 1.96875,5.90625 -4.22226,0.40769 -7.27407,3.94863 -5.5625,8.21875 -0.1678,4.65862 -0.80761,9.37754 1.5625,13.15625 -1.50672,3.33114 -0.9308,7.54585 3.5,7.28125 2.02387,0.56892 -2.2331,2.67864 -1.6875,3.625 1.57,2.43162 7.47916,1.02225 5.78125,5.9375 -0.76879,5.08121 4.65746,6.17066 8.21875,4.9375 1.28619,2.52673 4.94721,3.36744 7.78125,1.75 0.35288,-1.45832 1.31105,-6.40279 3.6875,-4.75 -1.20817,3.9548 -0.59249,8.3451 -2.8125,12 -2.30922,2.70523 -5.03642,6.17956 -7.9375,6.625 3.38431,2.34876 7.74997,-1.40843 11.625,-0.15625 4.9235,0.68167 9.898,0.22677 14.8125,0.84375 4.05253,-0.0206 10.87236,1.9364 12.40625,-3.25 -1.19856,-4.01737 -5.41695,-6.94035 -5.5,-11.6875 -0.39149,-2.45026 -1.97612,-10.54617 2.71875,-6.71875 3.0991,2.37848 -1.56972,8.02317 3.71875,7.65625 3.57363,1.93306 7.23648,-0.6089 5.40625,-4.4375 0.90576,-5.09959 6.83218,3.50881 8.0625,-2.4375 1.47892,-4.40861 6.75896,-6.42733 7.25,-11.375 0.2403,-4.0165 5.11055,-10.58982 -0.625,-12.9375 -2.66441,0.72455 -6.78961,5.58038 -9.03125,0.8125 -1.17357,-6.45878 6.8456,-0.40388 8.25,-2.5625 0.0747,-2.00307 0.39764,-5.21163 3.15625,-4.84375 -2.47644,-2.65111 -1.50911,-7.69753 -5.8125,-7.6875 -1.29995,-2.69012 1.32903,-3.38741 -0.0625,-5.9375 1.57151,-4.34601 -6.30996,-5.27211 -4.125,-9.65625 -4.88374,-0.0857 -7.5854,-4.92908 -10.40625,-8.15625 -3.93826,-2.65903 -10.07018,3.20409 -11.3125,-3.2812502 -2.60505,-4.76984 -7.13141,3.3123302 -9,-2.09375 l -0.59375,-0.53125 -0.71875,-0.25 z m -6.9375,14.9062502 c 0.095,-0.0231 0.14777,0.11656 0.28125,0.5 1.51865,0.0291 1.46514,2.00173 1,3 -0.23096,0.30174 -0.38801,0.62556 -0.5,0.96875 -0.0373,0.1144 -0.05917,0.22854 -0.09375,0.34375 -0.13833,0.46079 -0.28987,0.94612 -0.59375,1.34375 -0.94197,0.24007 -0.41791,1.53039 -1.1875,1.78125 -0.71358,0.54526 -0.60203,1.88378 -1.65625,2.1875 -1.13178,-0.72339 -1.51293,-2.46674 -0.90625,-3.65625 0.6552,-0.62592 0.45237,-1.47668 0.875,-2.1875 0.96623,-0.5554 0.58669,-1.85955 1.375,-2.59375 0.64644,-0.16901 0.51839,-0.82271 0.9375,-1.25 0.24465,-0.23614 0.37364,-0.41436 0.46875,-0.4375 z m 12.03125,0.09375 c 1.06834,1.85533 1.95203,3.82229 2.4375,5.90625 0.14387,1.31885 1.12281,3.19557 -0.21875,4.1875 -0.11095,0.053 -0.17966,0.07601 -0.21875,0.125 -0.0198,0.0242 -0.02585,0.07005 -0.03125,0.09375 -0.007,0.0258 -0.0077,0.0371 0,0.0625 0.007,0.0201 0.01705,0.0424 0.03125,0.0625 0.0496,0.068 0.12632,0.14719 0.21875,0.21875 0.0603,0.0467 0.13055,0.10578 0.1875,0.15625 0.0266,0.0241 0.07075,0.0373 0.09375,0.0625 0.003,0.003 -0.004,0.02745 0,0.03125 0.0208,0.0238 0.0466,0.0376 0.0625,0.0625 0.003,0.004 -0.003,0.02665 0,0.03125 0.0145,0.0246 0.02305,0.0364 0.03125,0.0625 0.0356,0.1008 0.0394,0.21788 -0.0625,0.34375 -0.0181,0.14065 -0.03365,0.27838 -0.03125,0.4375 4e-5,0.003 -5e-5,0.02825 0,0.03125 0.003,0.16181 0.01765,0.32737 0.03125,0.5 0.0277,0.35627 0.0578,0.73689 0.0625,1.09375 1e-5,0.003 -3e-5,0.02825 0,0.03125 7.5e-4,0.0873 0.005,0.1651 0,0.25 -0.004,0.0848 -0.02065,0.16869 -0.03125,0.25 -3.2e-4,0.003 3.5e-4,0.02825 0,0.03125 -0.0219,0.16476 -0.03748,0.29287 -0.09375,0.4375 -0.002,0.003 10e-4,0.02725 0,0.03125 -0.0278,0.0699 -0.05585,0.12372 -0.09375,0.1875 -0.0801,0.13616 -0.20905,0.27314 -0.34375,0.375 -0.0662,0.0502 -0.13706,0.08456 -0.21875,0.125 -1.39473,0.24355 -1.82552,-1.37795 -1.6875,-2.4375 -0.97876,-1.46573 -0.68975,-3.35674 -1.09375,-5.03125 -0.027,-0.11164 -0.06015,-0.23432 -0.09375,-0.34375 -0.14774,-0.22711 -0.2183,-0.43346 -0.25,-0.65625 -0.0104,-0.071 -0.03035,-0.14836 -0.03125,-0.21875 -6.8e-4,-0.0703 0.02337,-0.14896 0.03125,-0.21875 0.0249,-0.21704 0.07159,-0.44487 0.15625,-0.65625 0.11346,-0.28251 0.28451,-0.57183 0.4375,-0.84375 0.15301,-0.27135 0.28825,-0.52087 0.40625,-0.78125 -0.0761,-0.84451 -0.37208,-1.79393 0.03125,-2.65625 l 0.28125,-1.34375 z m 9.34375,8.1875 c 1.07086,0.0269 1.80849,1.10382 1.71875,2.1875 -0.16838,1.09529 0.62941,1.81674 0.8125,2.75 0.341,2.00804 -2.00949,3.05345 -3.6875,2.625 -0.50131,0.029 -0.90509,-0.24156 -1.09375,-0.625 -0.0237,-0.048 -0.046,-0.10548 -0.0625,-0.15625 -0.0669,-0.20289 -0.09175,-0.44126 -0.03125,-0.65625 0.0151,-0.0537 0.0383,-0.10377 0.0625,-0.15625 0.0242,-0.0525 0.06015,-0.10585 0.09375,-0.15625 0.0336,-0.0504 0.08129,-0.07753 0.125,-0.125 0.47076,-0.42553 0.7346,-0.93063 0.90625,-1.46875 0.0344,-0.10763 0.06715,-0.23321 0.09375,-0.34375 0.0534,-0.2211 0.09348,-0.42668 0.125,-0.65625 0.0315,-0.2296 0.07275,-0.45364 0.09375,-0.6875 0.0633,-0.70157 0.10365,-1.42988 0.28125,-2.09375 l 0.03125,-0.125 0.0625,-0.25 c 0.1651,-0.0423 0.31577,-0.0663 0.46875,-0.0625 z m -42.78125,0.625 c 0.29596,1.29286 1.55075,0.93474 2.5,1 0.11136,7.7e-4 0.23992,0.01585 0.34375,0.03125 0.10384,0.0153 0.18508,0.0337 0.28125,0.0625 1.34632,0.40282 1.93013,2.05839 1.5625,3.40625 0.003,0.0619 0.0073,0.1317 0,0.1875 -0.007,0.0559 -0.01465,0.10684 -0.03125,0.15625 -0.23081,0.69149 -1.31608,0.74019 -1.375,-0.1875 -0.73921,-0.61496 -2.23303,-0.43202 -2.875,-1.4375 -0.18679,-0.74601 -1.06579,-1.40997 -0.71875,-2.28125 l 0.3125,-0.9375 z m 54.59375,2.5 c 1.71172,0.0787 2.4244,1.91396 2.40625,3.40625 0.18898,0.35509 0.23685,0.77155 0.1875,1.15625 -0.008,0.0641 -0.0173,0.12408 -0.0312,0.1875 -0.12571,0.57081 -0.47966,1.09845 -0.96875,1.4375 -0.62317,0.61849 -1.33423,0.15302 -1.5,-0.5 -0.0139,-0.0544 -0.0255,-0.0995 -0.0312,-0.15625 -0.0169,-0.17022 -0.008,-0.35812 0.0625,-0.53125 -0.38863,-0.28526 -0.90506,-0.13754 -1.40625,0.0625 -0.10029,0.04 -0.2163,0.08198 -0.3125,0.125 -0.19241,0.0859 -0.37202,0.15387 -0.53125,0.21875 -0.11624,0.29889 -0.2711,0.56884 -0.46875,0.78125 -0.0658,0.0709 -0.14573,0.12441 -0.21875,0.1875 -0.87628,0.75692 -2.235,1.00498 -3.25,1.53125 -0.19573,0.863 -0.99819,1.14134 -1.8125,1.25 -0.13571,0.018 -0.27383,0.0531 -0.40625,0.0625 -0.13242,0.009 -0.28299,-0.004 -0.40625,0 -0.76207,-0.1215 -0.80102,0.59032 -0.59375,1.15625 0.27154,0.68906 0.06489,1.67381 -0.5625,2 -0.10456,0.0544 -0.2145,0.11267 -0.34375,0.125 -0.12924,0.0125 -0.25241,-0.02382 -0.40625,-0.0625 -1.66834,-0.0872 -1.55834,-2.20919 -1.1875,-3.375 -0.11059,-1.40069 1.06469,-2.34077 2.34375,-2.5625 1.40923,-5.2e-4 2.18058,-1.22679 3.3125,-1.90625 0.78354,-1.002 1.735255,-1.7647 2.84375,-2.40625 0.85321,-1.07064 1.96378,-1.88117 3.28125,-2.1875 z m -33.84375,1.71875 c -0.21127,1.43849 -0.02402,2.85466 -0.09375,4.3125 -0.055,0.28836 0.0407,0.50903 0.1875,0.6875 0.0489,0.0595 0.09906,0.10299 0.15625,0.15625 0.22891,0.21307 0.48199,0.39159 0.5625,0.625 0.0713,0.65596 -0.25061,1.01928 -0.71875,1.1875 -0.0669,0.0241 -0.11543,0.0458 -0.1875,0.0625 -0.0721,0.0168 -0.14296,0.02105 -0.21875,0.03125 -0.0758,0.0103 -0.17193,0.02705 -0.25,0.03125 -0.46838,0.0256 -0.94572,-0.05367 -1.3125,-0.15625 -0.25445,-0.008 -0.51225,-0.06597 -0.71875,-0.1875 -0.13762,-0.081 -0.23532,-0.19621 -0.34375,-0.3125 -0.59578,-0.63974 -0.70346,-1.72771 0.21875,-2.21875 1.47266,-0.58242 1.03699,-2.34056 1.78125,-3.46875 l 0.9375,-0.75 z m 10.5625,1.71875 c -0.0611,1.54027 0.09175,3.09432 -0.03125,4.625 -0.0654,0.6682 -0.59341,1.29948 -1.21875,1.625 -0.0782,0.0407 -0.13772,0.06302 -0.21875,0.09375 -0.56712,0.21476 -1.20623,0.16616 -1.65625,-0.3125 -0.51839,-1.20458 -1.68203,-2.29948 -1.40625,-3.71875 0.003,-0.0961 0.0371,-0.17526 0.0625,-0.25 0.0128,-0.0373 0.01415,-0.06073 0.03125,-0.09375 0.22181,-0.42957 0.76354,-0.53716 0.75,-1.03125 0.26623,-1.42806 2.10274,-0.61473 3.0625,-0.8125 l 0.625,-0.125 z m -8.78125,4.625 c 0.0698,-0.006 0.11865,0.002 0.1875,0 0.34422,-0.008 0.68695,0.03427 1,0.125 0.12533,0.0364 0.25589,0.07466 0.375,0.125 0.11906,0.0504 0.23154,0.09293 0.34375,0.15625 0.003,0.002 -0.004,0.02925 0,0.03125 0.66899,0.37996 1.2218,0.98185 1.5625,1.6875 0.11391,0.23617 0.21487,0.46323 0.28125,0.71875 0.0999,0.38346 0.11604,0.78482 0.09375,1.1875 -0.34981,1.52041 -0.63666,3.08439 -0.46875,4.6875 -0.0801,0.51969 -0.0899,1.06553 0,1.5625 0.0129,0.071 0.01405,0.11776 0.03125,0.1875 0.13786,0.55788 0.42197,1.08021 0.90625,1.5 0.41956,0.33188 0.37932,0.84067 0.09375,1.03125 -0.0572,0.0382 -0.14475,0.08515 -0.21875,0.09375 -0.148,0.0171 -0.30704,-0.03832 -0.5,-0.1875 -1.65987,-0.25564 -3.20015,-1.6149 -3.25,-3.375 0.47914,-1.34261 -0.75485,-2.1196 -1.59375,-2.9375 -0.93595,-0.33373 -0.69867,-1.53505 0,-2 1.33755,-0.87395 0.98207,-2.46977 1.0625,-3.84375 0.005,-0.0916 -0.0099,-0.19196 0,-0.28125 l 0.03125,-0.21875 0.0625,-0.25 z m -13.71875,0.78125 c 0.0443,-0.009 0.10968,4e-4 0.15625,0 0.69789,-0.007 1.60456,0.89961 1.875,1.6875 0.18971,1.11543 0.08168,2.78249 -1.09375,3.3125 -1.17071,0.49772 -3.2376,-0.72732 -2.21875,-2.03125 1.08942,-0.5341 0.3935,-1.97158 1.15625,-2.78125 l 0.125,-0.1875 z m 30.65625,3.59375 0.21875,0.0625 c 2.04698,0.32108 0.62183,2.76099 -0.21875,3.625 -0.21684,1.48239 1.28649,2.74943 0.65625,4.28125 -0.16965,0.0807 -0.32376,0.14892 -0.5,0.21875 -0.17623,0.0698 -0.34973,0.12971 -0.53125,0.1875 -0.90758,0.2889 -1.8699,0.4396 -2.8125,0.34375 -0.0943,-0.009 -0.18753,-0.0483 -0.28125,-0.0625 -0.0937,-0.0142 -0.18823,-0.01235 -0.28125,-0.03125 -0.0517,-0.0143 -0.10888,-0.045 -0.15625,-0.0625 -0.0474,-0.0175 -0.08186,-0.01095 -0.125,-0.03125 -1.2944,-0.61392 -0.74365,-2.56867 -0.1875,-3.59375 0.83549,-0.9691 0.17932,-2.50336 1.21875,-3.3125 0.3386,-1.32275 1.85238,-1.05034 2.8125,-1.46875 l 0.1875,-0.15625 z m -24.03125,4.875 c 1.94022,0.40516 4.3653,0.80231 5.28125,2.8125 0.5417,0.71173 -0.24114,1.79199 0.5625,2.25 0.25684,0.20449 0.50362,0.49965 0.6875,0.84375 0.0368,0.0689 0.06302,0.14784 0.09375,0.21875 0.30668,0.70905 0.29561,1.50504 -0.59375,1.78125 -0.70945,-0.12892 -1.4658,0.11452 -2.21875,0.28125 -0.0941,0.0209 -0.18781,0.01365 -0.28125,0.03125 -0.0935,0.0175 -0.18879,0.05 -0.28125,0.0625 -0.0925,0.0125 -0.19007,0.02555 -0.28125,0.03125 -0.45596,0.0287 -0.91104,-0.03981 -1.3125,-0.3125 -0.71266,-0.78813 0.69378,-1.49405 0.09375,-2.34375 -0.57222,-0.4261 -1.11974,-1.12035 -0.9375,-1.96875 0.21497,-1.03131 0.11469,-1.98924 -0.4375,-2.8125 l -0.375,-0.875 z m 36.03125,1.53125 c 0.0651,-0.0113 0.15341,-9e-4 0.21875,0 0.45733,0.006 0.87034,0.29374 0.8125,0.8125 -0.35049,1.28127 -0.77688,2.59192 -0.84375,3.90625 -0.009,0.18777 -0.006,0.37405 0,0.5625 -0.65781,1.26889 -2.45309,0.94739 -3.03125,-0.21875 -1.65826,-0.0742 -2.55237,-2.52388 -1.25,-3.65625 1.26481,-0.62727 2.712805,-1.04359 4.09375,-1.40625 z m -48.625,2.53125 c 0.554931,-0.0058 1.088701,0.04379 1.625,0.1875 0.785149,0.205473 1.622737,0.6635 1.90625,1.46875 0.303042,0.873233 -0.01103,1.818341 -0.375,2.625 -0.105483,0.613349 -0.303904,1.288423 -0.84375,1.65625 -0.496578,0.319535 -1.120013,0.113382 -1.5625,-0.1875 -0.764917,-0.46418 -1.211995,-1.311901 -1.3125,-2.1875 -0.146469,-1.209532 0.125707,-2.437826 0.5625,-3.5625 z m 41.9375,2.5 c 0.97864,0.008 2.00997,0.30068 2.375,1.21875 0.14892,1.34054 0.23927,2.76998 0.0625,4.125 -0.49533,1.63908 -2.34523,2.34432 -3.59375,3.34375 -0.57171,0.72976 -1.24587,1.5292 -2.21875,1.6875 -0.0695,0.0113 -0.14627,0.02685 -0.21875,0.03125 -0.0724,0.004 -0.14318,0.003 -0.21875,0 -1.22191,0.16417 -1.19001,-1.11347 -1.5,-1.84375 -0.70647,-1.16079 -0.80618,-3.37236 0.90625,-3.625 0.16297,0.0455 0.30849,0.04975 0.4375,0.03125 0.043,-0.006 0.08478,-0.01945 0.125,-0.03125 0.48242,-0.14091 0.78302,-0.67784 1.3125,-0.90625 0.3106,-0.30609 1.71736,-0.31436 1.28125,-0.96875 -0.47981,-0.38445 -0.83406,-0.9944 -0.875,-1.59375 -0.004,-0.0666 -0.0031,-0.12136 0,-0.1875 0.02,-0.39681 0.19652,-0.79189 0.5625,-1.09375 0.4144,-0.10847 0.97531,-0.19256 1.5625,-0.1875 z m 4.5625,5.03125 c 1.32649,-0.0592 1.96472,1.28388 1.75,2.5 0.18976,0.8866 -0.69705,0.90456 -1.03125,1.59375 -0.43917,0.64593 -1.11032,2.27011 -2.09375,1.4375 -0.0495,-0.0531 -0.11872,-0.10361 -0.15625,-0.15625 -0.0376,-0.0527 -0.06705,-0.10393 -0.09375,-0.15625 -0.26717,-0.52325 -3.5e-4,-1.02145 0.21875,-1.5625 0.0438,-0.10822 0.08769,-0.23266 0.125,-0.34375 0.0372,-0.11108 0.07185,-0.22907 0.09375,-0.34375 0.1766,-0.76685 -0.11245,-2.05163 0.40625,-2.65625 0.0399,-0.0465 0.1065,-0.08718 0.15625,-0.125 0.0994,-0.0755 0.19839,-0.12267 0.34375,-0.15625 0.0945,-0.0169 0.19281,-0.02725 0.28125,-0.03125 z m -33.5625,1.09375 c 0.36958,0.009 0.77643,0.14837 1.15625,0.09375 0.0469,-0.0109 0.10988,0.0057 0.15625,0 0.69548,-0.0852 1.31626,0.37352 1.875,0.5 1.65699,-0.21804 1.72672,1.93039 1.6875,3.0625 0.60648,1.04023 0.43227,3.1887 -0.9375,3.40625 -0.0456,0.008 -0.10799,0.02835 -0.15625,0.03125 -0.0483,0.003 -0.07403,0.002 -0.125,0 -1.38209,-0.44562 -1.29695,-2.4107 -2.5625,-3.125 -0.4977,-0.93374 -1.39219,-0.39858 -2.125,-0.84375 -1.4429,-0.63906 -1.0433,-3.38616 0.6875,-3.0625 0.10949,-0.0385 0.22057,-0.0654 0.34375,-0.0625 z"
     id="path6641-8" />
  <g
     style="font-size:14.28402328px;font-style:normal;font-variant:normal;font-weight:bold;font-stretch:normal;text-align:start;line-height:125%;letter-spacing:0px;word-spacing:0px;writing-mode:lr-tb;text-anchor:start;fill:#000000;fill-opacity:1;stroke:none;font-family:LMSans10;-inkscape-font-specification:LMSans10 Bold"
     id="text6541-9-7"
     transform="translate(7.1228706,0.04538261)">
    <path
       d="m 8.7132542,111.19463 -3.9995266,-5.37079 3.7566982,-3.52815 c 0.1714081,-0.15713 0.1714082,-0.24283 0.1714082,-0.29997 0,-0.29996 -0.2856806,-0.29996 -0.4856568,-0.29996 l -0.8713254,0 c -0.2428281,0 -0.5285091,0 -0.8284733,0.28568 l -4.5994555,4.34234 0,-3.94239 c 0,-0.45709 -0.099989,-0.68563 -0.6856331,-0.68563 l -0.48565684,0 c -0.51422432,0 -0.685633113405746,0.15712 -0.685633113405746,0.68563 l 0,8.54185 c 0,0.51422 0.157124783405746,0.68563 0.685633113405746,0.68563 l 0.48565684,0 c 0.5427923,0 0.6856331,-0.18569 0.6856331,-0.68563 l 0,-2.39972 1.5855266,-1.49982 3.1996212,4.28521 c 0.2285441,0.29996 0.442805,0.29996 0.7142011,0.29996 l 0.8570414,0 c 0.2999642,0 0.4999409,0 0.4999409,-0.41424"
       id="path2987"
       inkscape:connector-curvature="0" />
    <path
       d="m 20.064366,106.72374 c 0,-2.87109 -1.042737,-5.34223 -4.785148,-5.34223 -3.95667,0 -4.799432,2.72825 -4.799432,5.34223 0,2.67111 0.928466,5.19938 4.785148,5.19938 3.685274,0 4.799432,-2.27116 4.799432,-5.19938 m -2.099751,-0.22855 c 0,1.27128 -3e-6,4.28521 -2.685397,4.28521 -2.699678,0 -2.69968,-2.98536 -2.69968,-4.28521 0,-1.25699 2e-6,-3.99953 2.685396,-3.99953 2.699678,0 2.699681,2.71397 2.699681,3.99953"
       id="path2989"
       inkscape:connector-curvature="0" />
    <path
       d="m 31.419048,106.72374 c 0,-2.87109 -1.042738,-5.34223 -4.785148,-5.34223 -3.95667,0 -4.799432,2.72825 -4.799432,5.34223 0,2.67111 0.928466,5.19938 4.785148,5.19938 3.685274,0 4.799432,-2.27116 4.799432,-5.19938 m -2.099752,-0.22855 c 0,1.27128 -2e-6,4.28521 -2.685396,4.28521 -2.699678,0 -2.69968,-2.98536 -2.69968,-4.28521 0,-1.25699 2e-6,-3.99953 2.685396,-3.99953 2.699678,0 2.69968,2.71397 2.69968,3.99953"
       id="path2991"
       inkscape:connector-curvature="0" />
    <path
       d="m 42.773731,106.72374 c 0,-1.12844 -0.185693,-2.51399 -0.985598,-3.52816 -1.0713,-1.32841 -2.785385,-1.49982 -3.713846,-1.49982 l -3.770982,0 c -0.514224,0 -0.685633,0.15712 -0.685633,0.68563 l 0,8.54185 c 0,0.51422 0.157125,0.68563 0.685633,0.68563 l 3.770982,0 c 3.485298,0 4.699444,-2.08547 4.699444,-4.88513 m -2.0569,0 c 0,1.61409 -0.157127,3.65671 -3.199621,3.65671 l -1.842639,0 0,-7.45626 1.828355,0 c 3.085346,0 3.213905,2.19974 3.213905,3.79955"
       id="path2993"
       inkscape:connector-curvature="0" />
    <path
       d="m 47.08639,110.92324 0,-8.54185 c 0,-0.45709 -0.09999,-0.68563 -0.685633,-0.68563 l -0.728485,0 c -0.514224,0 -0.685633,0.15712 -0.685633,0.68563 l 0,8.54185 c 0,0.51422 0.157125,0.68563 0.685633,0.68563 l 0.728485,0 c 0.542793,0 0.685633,-0.18569 0.685633,-0.68563"
       id="path2995"
       inkscape:connector-curvature="0" />
    <path
       d="m 56.015021,110.92324 0,-0.12856 c 0,-0.32853 -0.01428,-0.68563 -0.671349,-0.68563 l -3.556722,0.0571 0,-7.7848 c 0,-0.45709 -0.09999,-0.68563 -0.685633,-0.68563 l -0.728485,0 c -0.514225,0 -0.685633,0.15712 -0.685633,0.68563 l 0,8.54185 c 0,0.51422 0.157124,0.68563 0.685633,0.68563 l 4.956556,0 c 0.542792,0 0.685633,-0.18569 0.685633,-0.68563"
       id="path2997"
       inkscape:connector-curvature="0" />
    <path
       d="m 65.172197,110.92324 0,-0.19998 c 0,-0.68563 -0.328533,-0.68563 -0.799905,-0.68563 l -2.214024,0.0286 -2.085467,0.0286 0,-2.92822 3.756698,0 c 0.442804,0 0.685633,-0.1 0.685633,-0.67135 0,-0.52851 -0.185693,-0.67135 -0.685633,-0.67135 l -3.756698,0 0,-2.64254 0.699917,0 3.356745,0.0429 c 0.49994,0 0.828473,0 0.828473,-0.68563 l 0,-0.11428 c 0,-0.45708 -0.09999,-0.68563 -0.685633,-0.68563 l -5.613621,0 c -0.514224,0 -0.685633,0.15713 -0.685633,0.68563 l 0,8.499 c 0,0.51422 0.157125,0.68563 0.685633,0.68563 l 5.827882,0 c 0.542792,0 0.685633,-0.18569 0.685633,-0.68563"
       id="path2999"
       inkscape:connector-curvature="0" />
    <path
       d="m 75.879188,110.92324 0,-8.54185 c 0,-0.45709 -0.09999,-0.68563 -0.685633,-0.68563 l -0.728486,0 c -0.542792,0 -0.685633,0.18569 -0.685633,0.68563 l 0,3.3996 -4.528035,0 0,-3.3996 c 0,-0.45709 -0.09999,-0.68563 -0.685633,-0.68563 l -0.728485,0 c -0.514225,0 -0.685634,0.15712 -0.685634,0.68563 l 0,8.54185 c 0,0.51422 0.157125,0.68563 0.685634,0.68563 l 0.728485,0 c 0.542792,0 0.685633,-0.18569 0.685633,-0.68563 l 0,-3.79955 4.528035,0 0,3.79955 c 0,0.45709 0.09999,0.68563 0.685633,0.68563 l 0.728486,0 c 0.542792,0 0.685633,-0.18569 0.685633,-0.68563"
       id="path3001"
       inkscape:connector-curvature="0" />
    <path
       d="m 87.09103,102.58137 0,-0.11427 c 0,-0.45709 -0.09999,-0.68564 -0.685633,-0.68564 l -7.941917,0 c -0.514224,0 -0.685633,0.15713 -0.685633,0.68564 l 0,0.11427 c 0,0.68563 0.342817,0.68563 0.742769,0.68563 l 2.871089,-0.0429 0,7.69909 c 0,0.51422 0.157125,0.68563 0.685633,0.68563 l 0.728485,0 c 0.542793,0 0.685633,-0.18569 0.685633,-0.68563 l 0,-7.69909 2.856805,0.0429 c 0.399952,0 0.742769,0 0.742769,-0.68563"
       id="path3003"
       inkscape:connector-curvature="0" />
    <path
       d="m 98.124321,106.72374 c 0,-2.87109 -1.042738,-5.34223 -4.785148,-5.34223 -3.956671,0 -4.799432,2.72825 -4.799432,5.34223 0,2.67111 0.928465,5.19938 4.785148,5.19938 3.685274,0 4.799432,-2.27116 4.799432,-5.19938 m -2.099752,-0.22855 c 0,1.27128 -3e-6,4.28521 -2.685396,4.28521 -2.699678,0 -2.699681,-2.98536 -2.699681,-4.28521 0,-1.25699 3e-6,-3.99953 2.685397,-3.99953 2.699677,0 2.69968,2.71397 2.69968,3.99953"
       id="path3005"
       inkscape:connector-curvature="0" />
  </g>
</svg>
